<?xml version="1.0" encoding="UTF-8" standalone="no"?>
<svg
   xmlns:dc="http://purl.org/dc/elements/1.1/"
   xmlns:cc="http://creativecommons.org/ns#"
   xmlns:rdf="http://www.w3.org/1999/02/22-rdf-syntax-ns#"
   xmlns:svg="http://www.w3.org/2000/svg"
   xmlns="http://www.w3.org/2000/svg"
   xmlns:xlink="http://www.w3.org/1999/xlink"
   viewBox="0 0 139.74565 68.874001"
   height="68.874001"
   width="139.74565"
   xml:space="preserve"
   version="1.1"
   id="svg2"><metadata
     id="metadata8"><rdf:RDF><cc:Work
         rdf:about=""><dc:format>image/svg+xml</dc:format><dc:type
           rdf:resource="http://purl.org/dc/dcmitype/StillImage" /><dc:title></dc:title></cc:Work></rdf:RDF></metadata><defs
     id="defs6"></defs>
     <g transform="matrix(1.25,0,0,-1.25,-284.57425,443.47509)" id="g10">
     <g id="g62">
     <g id="g70" transform="matrix(0.7734375,0,0,0.7734375,231.8194,337.4912)">
     <g id="text72"
           style="font-style:normal;font-variant:normal;font-weight:100;font-stretch:normal;font-size:28px;font-family:'Helvetica Neue';-inkscape-font-specification:'Helvetica Neue Thin';writing-mode:lr-tb;fill:#000000;fill-opacity:1;fill-rule:nonzero;stroke:none"
           transform="scale(1,-1)">
           <path
             id="path4283"
             style="font-style:normal;font-variant:normal;font-weight:200;font-stretch:normal;font-family:'Helvetica Neue';-inkscape-font-specification:'Helvetica Neue Ultra-Light'"
             d="m 0.812,-5.992 9.408,-13.328 1.064,0 0,13.468 3.248,0 0,0.924 -3.248,0 0,4.928 -1.064,0 0,-4.928 -9.408,0 0,-1.064 z m 9.408,0.14 0,-12.012 -0.056,0 -8.288,12.012 8.344,0 z" />
             <path
             id="path4285"
             style="font-style:normal;font-variant:normal;font-weight:200;font-stretch:normal;font-family:'Helvetica Neue';-inkscape-font-specification:'Helvetica Neue Ultra-Light'"
             d="m 23.632,0.336 q -2.016,0 -3.36,-0.756 -1.316,-0.756 -2.1,-1.988 -0.784,-1.26 -1.12,-2.884 -0.308,-1.652 -0.308,-3.416 0,-1.176 0.112,-2.436 0.112,-1.288 0.392,-2.492 0.308,-1.232 0.812,-2.324 0.504,-1.092 1.288,-1.904 0.812,-0.84 1.904,-1.316 1.12,-0.476 2.604,-0.476 2.464,0 4.032,1.316 1.596,1.316 1.876,3.78 l -1.064,0 q -0.168,-0.924 -0.588,-1.68 -0.42,-0.784 -1.064,-1.316 -0.616,-0.56 -1.428,-0.868 -0.812,-0.308 -1.764,-0.308 -1.988,0 -3.192,1.036 -1.204,1.036 -1.848,2.576 -0.616,1.512 -0.812,3.276 -0.196,1.736 -0.196,3.164 l 0.056,0.056 q 0.308,-0.924 0.896,-1.68 0.588,-0.784 1.344,-1.316 0.756,-0.56 1.652,-0.84 0.896,-0.308 1.876,-0.308 1.428,0 2.604,0.504 1.204,0.504 2.044,1.4 0.868,0.868 1.344,2.072 0.476,1.204 0.476,2.632 0,1.4 -0.504,2.604 -0.476,1.176 -1.344,2.044 -0.84,0.868 -2.044,1.372 -1.176,0.476 -2.576,0.476 z m -5.46,-6.496 q 0,1.204 0.42,2.24 0.448,1.008 1.176,1.764 0.728,0.728 1.708,1.148 1.008,0.42 2.156,0.42 1.176,0 2.156,-0.448 0.98,-0.448 1.708,-1.204 0.728,-0.756 1.12,-1.764 0.42,-1.008 0.42,-2.156 0,-1.12 -0.42,-2.156 -0.392,-1.036 -1.12,-1.82 -0.7,-0.784 -1.708,-1.232 -0.98,-0.476 -2.156,-0.476 -1.204,0 -2.212,0.448 -0.98,0.448 -1.708,1.232 -0.728,0.756 -1.148,1.792 -0.392,1.036 -0.392,2.212 z" />
             </g></g><g
         id="g76"
         transform="matrix(0.7734375,0,0,0.7734375,231.8194,337.4912)">
         <g
           id="text78"
           style="font-style:normal;font-variant:normal;font-weight:100;font-stretch:normal;font-size:18.66666985px;font-family:'Helvetica Neue';-inkscape-font-specification:'Helvetica Neue Thin';writing-mode:lr-tb;fill:#000000;fill-opacity:1;fill-rule:nonzero;stroke:none"
           transform="matrix(1,0,0,-1,31.136,9.025288)">
           <path
             id="path4288"
             style="font-style:normal;font-variant:normal;font-weight:300;font-stretch:normal;font-family:'Helvetica Neue';-inkscape-font-specification:'Helvetica Neue Light'"
             d="m 2.9866672,-9.6320016 0,-2.8933334 -1.1760002,0 0,2.8933334 -1.68000031,0 0,0.9893335 1.68000031,0 0,6.5893344 q -0.018667,1.23200023 0.4480001,1.69866697 0.4666667,0.44800008 1.6426669,0.44800008 0.2613334,0 0.5226668,-0.01866667 0.2613333,-0.01866667 0.5226667,-0.01866667 l 0,-0.9893335 q -0.5040001,0.056 -1.0080002,0.056 Q 3.3040006,-0.91466682 3.1360005,-1.2320002 2.9866672,-1.5680003 2.9866672,-2.146667 l 0,-6.4960011 1.9600003,0 0,-0.9893335 -1.9600003,0 z" />
             <path
             id="path4290"
             style="font-style:normal;font-variant:normal;font-weight:300;font-stretch:normal;font-family:'Helvetica Neue';-inkscape-font-specification:'Helvetica Neue Light'"
             d="m 6.6266679,-13.328002 0,13.328002 1.1760002,0 0,-5.6186676 q 0.018667,-0.7093335 0.224,-1.3066669 0.2240001,-0.6160001 0.5973335,-1.0453335 0.392,-0.4480001 0.9333334,-0.6906668 0.56,-0.2613334 1.269334,-0.2613334 0.709333,0 1.176,0.2240001 0.485333,0.224 0.765333,0.6160001 0.28,0.392 0.392,0.9333334 0.112,0.5226668 0.112,1.1386669 l 0,6.0106677 1.176001,0 0,-6.1973344 q 0,-0.8586668 -0.168,-1.5493336 -0.168001,-0.6906668 -0.578667,-1.1573335 -0.410667,-0.4853334 -1.101334,-0.7466668 -0.672,-0.2613334 -1.68,-0.2613334 -1.0266669,0 -1.8853337,0.5413334 -0.8586668,0.5226668 -1.1946669,1.4000003 l -0.037333,0 0,-5.357334 -1.1760002,0 z" />
             </g></g><g
         id="g82"
         transform="matrix(0.7734375,0,0,0.7734375,231.8194,337.4912)">
         <g
           id="text84"
           style="font-style:normal;font-variant:normal;font-weight:100;font-stretch:normal;font-size:28px;font-family:'Helvetica Neue';-inkscape-font-specification:'Helvetica Neue Thin';writing-mode:lr-tb;fill:#000000;fill-opacity:1;fill-rule:nonzero;stroke:none"
           transform="matrix(1,0,0,-1,54.46933,0)">
           <path
             id="path4293"
             style="font-style:normal;font-variant:normal;font-weight:200;font-stretch:normal;font-family:'Helvetica Neue';-inkscape-font-specification:'Helvetica Neue Ultra-Light'"
             d="m 7.7,-19.992 1.344,0 L 16.94,0 l -1.316,0 -2.52,-6.412 -9.576,0 L 0.98,0 -0.336,0 7.7,-19.992 Z m 5.012,12.516 -4.284,-11.312 -0.056,0 -4.452,11.312 8.792,0 z" />
             <path
             id="path4295"
             style="font-style:normal;font-variant:normal;font-weight:200;font-stretch:normal;font-family:'Helvetica Neue';-inkscape-font-specification:'Helvetica Neue Ultra-Light'"
             d="m 18.172,-14.392 1.064,0 0,3.08 0.056,0 q 0.28,-0.812 0.784,-1.428 0.532,-0.644 1.204,-1.092 0.7,-0.448 1.512,-0.672 0.812,-0.224 1.652,-0.224 1.26,0 2.128,0.308 0.896,0.308 1.456,0.812 0.56,0.504 0.868,1.148 0.336,0.616 0.476,1.26 0.14,0.644 0.168,1.26 0.028,0.588 0.028,1.036 l 0,8.904 -1.064,0 0,-9.1 q 0,-0.532 -0.084,-1.344 -0.084,-0.812 -0.504,-1.54 -0.392,-0.756 -1.232,-1.288 -0.812,-0.532 -2.268,-0.532 -1.232,0 -2.184,0.448 -0.952,0.448 -1.624,1.26 -0.672,0.784 -1.036,1.904 -0.336,1.092 -0.336,2.408 l 0,7.784 -1.064,0 0,-14.392 z" />
             <path
             id="path4297"
             style="font-style:normal;font-variant:normal;font-weight:200;font-stretch:normal;font-family:'Helvetica Neue';-inkscape-font-specification:'Helvetica Neue Ultra-Light'"
             d="m 32.704,-14.392 1.064,0 0,3.08 0.056,0 q 0.28,-0.812 0.784,-1.428 0.532,-0.644 1.204,-1.092 0.7,-0.448 1.512,-0.672 0.812,-0.224 1.652,-0.224 1.26,0 2.128,0.308 0.896,0.308 1.456,0.812 0.56,0.504 0.868,1.148 0.336,0.616 0.476,1.26 0.14,0.644 0.168,1.26 0.028,0.588 0.028,1.036 l 0,8.904 -1.064,0 0,-9.1 q 0,-0.532 -0.084,-1.344 -0.084,-0.812 -0.504,-1.54 -0.392,-0.756 -1.232,-1.288 -0.812,-0.532 -2.268,-0.532 -1.232,0 -2.184,0.448 -0.952,0.448 -1.624,1.26 -0.672,0.784 -1.036,1.904 -0.336,1.092 -0.336,2.408 l 0,7.784 -1.064,0 0,-14.392 z" />
             <path
             id="path4299"
             style="font-style:normal;font-variant:normal;font-weight:200;font-stretch:normal;font-family:'Helvetica Neue';-inkscape-font-specification:'Helvetica Neue Ultra-Light'"
             d="m 58.631999,0 -1.064,0 0,-3.08 -0.056,0 q -0.28,0.812 -0.812,1.456 -0.504,0.616 -1.204,1.064 -0.672,0.448 -1.484,0.672 -0.812,0.224 -1.652,0.224 -1.26,0 -2.156,-0.308 -0.868,-0.308 -1.428,-0.812 -0.56,-0.504 -0.896,-1.12 -0.308,-0.644 -0.448,-1.288 -0.14,-0.644 -0.168,-1.232 -0.028,-0.616 -0.028,-1.064 l 0,-8.904 1.064,0 0,9.1 q 0,0.56 0.084,1.372 0.084,0.784 0.476,1.54 0.42,0.728 1.232,1.26 0.812,0.532 2.296,0.532 1.204,0 2.156,-0.448 0.98,-0.448 1.652,-1.232 0.672,-0.812 1.008,-1.904 0.364,-1.12 0.364,-2.436 l 0,-7.784 1.064,0 0,14.392 z" />
             <path
             id="path4301"
             style="font-style:normal;font-variant:normal;font-weight:200;font-stretch:normal;font-family:'Helvetica Neue';-inkscape-font-specification:'Helvetica Neue Ultra-Light'"
             d="m 71.316001,-2.856 -0.056,0 q -0.252,0.644 -0.728,1.232 -0.476,0.56 -1.176,1.008 -0.672,0.448 -1.54,0.7 -0.868,0.252 -1.904,0.252 -2.296,0 -3.556,-0.98 -1.26,-1.008 -1.26,-3.08 0,-1.26 0.504,-2.044 0.504,-0.812 1.26,-1.26 0.784,-0.476 1.708,-0.672 0.952,-0.196 1.82,-0.28 l 1.652,-0.14 q 1.148,-0.084 1.792,-0.252 0.672,-0.196 1.008,-0.504 0.336,-0.336 0.42,-0.84 0.084,-0.504 0.084,-1.26 0,-0.588 -0.224,-1.092 -0.224,-0.504 -0.7,-0.896 -0.476,-0.392 -1.232,-0.616 -0.756,-0.224 -1.848,-0.224 -1.932,0 -3.136,0.952 -1.176,0.952 -1.288,2.884 l -1.064,0 q 0.112,-2.38 1.512,-3.556 1.428,-1.204 4.032,-1.204 2.604,0 3.78,1.036 1.204,1.008 1.204,2.66 l 0,8.372 q 0,0.308 0,0.616 0.028,0.308 0.112,0.56 0.084,0.252 0.28,0.42 0.196,0.14 0.56,0.14 0.28,0 0.784,-0.084 l 0,0.896 q -0.42,0.112 -0.868,0.112 -0.644,0 -1.036,-0.168 -0.364,-0.168 -0.56,-0.448 -0.196,-0.28 -0.28,-0.644 -0.056,-0.392 -0.056,-0.84 l 0,-0.756 z m 0,-5.32 q -0.392,0.476 -1.204,0.644 -0.784,0.168 -1.764,0.252 l -1.792,0.168 q -0.784,0.084 -1.568,0.252 -0.784,0.14 -1.428,0.504 -0.616,0.364 -1.008,1.008 -0.392,0.616 -0.392,1.624 0,1.596 1.008,2.38 1.008,0.756 2.772,0.756 1.82,0 2.884,-0.644 1.064,-0.672 1.624,-1.512 0.56,-0.868 0.7,-1.652 0.168,-0.812 0.168,-1.092 l 0,-2.688 z" />
             <path
             id="path4303"
             style="font-style:normal;font-variant:normal;font-weight:200;font-stretch:normal;font-family:'Helvetica Neue';-inkscape-font-specification:'Helvetica Neue Ultra-Light'"
             d="m 77.083997,-19.992 0,19.992 -1.064,0 0,-19.992 1.064,0 z" />
             </g></g><g
         id="g88"
         transform="matrix(0.7734375,0,0,0.7734375,230.8783,300.213)">
         <g
           id="text90"
           style="font-style:normal;font-variant:normal;font-weight:100;font-stretch:normal;font-size:43px;font-family:'Helvetica Neue';-inkscape-font-specification:'Helvetica Neue Thin';writing-mode:lr-tb;fill:#000000;fill-opacity:1;fill-rule:nonzero;stroke:none"
           transform="scale(1,-1)">
           <path
             id="path4306"
             style="font-style:normal;font-variant:normal;font-weight:bold;font-stretch:normal;font-family:'Helvetica Neue';-inkscape-font-specification:'Helvetica Neue Bold'"
             d="m 2.967,-30.702 0,30.702 6.751,0 0,-30.702 -6.751,0 z" />
             <path
             id="path4308"
             style="font-style:normal;font-variant:normal;font-weight:bold;font-stretch:normal;font-family:'Helvetica Neue';-inkscape-font-specification:'Helvetica Neue Bold'"
             d="m 36.12,-20.382 6.536,0 q -0.301,-2.666 -1.462,-4.73 -1.161,-2.064 -2.967,-3.44 -1.763,-1.419 -4.042,-2.15 -2.236,-0.731 -4.773,-0.731 -3.526,0 -6.364,1.247 -2.795,1.247 -4.73,3.44 -1.935,2.193 -2.967,5.16 -1.032,2.924 -1.032,6.364 0,3.354 1.032,6.278 1.032,2.881 2.967,5.031 1.935,2.15 4.73,3.397 2.838,1.204 6.364,1.204 2.838,0 5.203,-0.86 2.365,-0.86 4.128,-2.494 1.763,-1.634 2.838,-3.956 1.075,-2.322 1.333,-5.203 l -6.536,0 q -0.387,3.096 -2.15,4.988 -1.72,1.892 -4.816,1.892 -2.279,0 -3.87,-0.86 -1.591,-0.903 -2.58,-2.365 -0.989,-1.462 -1.462,-3.268 -0.43,-1.849 -0.43,-3.784 0,-2.021 0.43,-3.913 0.473,-1.892 1.462,-3.354 0.989,-1.505 2.58,-2.365 1.591,-0.903 3.87,-0.903 1.247,0 2.365,0.43 1.161,0.387 2.064,1.118 0.903,0.731 1.505,1.72 0.602,0.946 0.774,2.107 z" />
             <path
             id="path4310"
             style="font-style:normal;font-variant:normal;font-weight:bold;font-stretch:normal;font-family:'Helvetica Neue';-inkscape-font-specification:'Helvetica Neue Bold'"
             d="m 52.933,-15.222 q 0,-2.021 0.43,-3.913 0.473,-1.892 1.462,-3.354 0.989,-1.505 2.58,-2.365 1.591,-0.903 3.87,-0.903 2.279,0 3.87,0.903 1.591,0.86 2.58,2.365 0.989,1.462 1.419,3.354 0.473,1.892 0.473,3.913 0,1.935 -0.473,3.784 -0.43,1.806 -1.419,3.268 -0.989,1.462 -2.58,2.365 -1.591,0.86 -3.87,0.86 -2.279,0 -3.87,-0.86 -1.591,-0.903 -2.58,-2.365 -0.989,-1.462 -1.462,-3.268 -0.43,-1.849 -0.43,-3.784 z m -6.751,0 q 0,3.354 1.032,6.278 1.032,2.881 2.967,5.031 1.935,2.15 4.73,3.397 2.838,1.204 6.364,1.204 3.569,0 6.364,-1.204 2.795,-1.247 4.73,-3.397 1.935,-2.15 2.967,-5.031 1.032,-2.924 1.032,-6.278 0,-3.44 -1.032,-6.364 -1.032,-2.967 -2.967,-5.16 -1.935,-2.193 -4.73,-3.44 -2.795,-1.247 -6.364,-1.247 -3.526,0 -6.364,1.247 -2.795,1.247 -4.73,3.44 -1.935,2.193 -2.967,5.16 -1.032,2.924 -1.032,6.364 z" />
             <path
             id="path4312"
             style="font-style:normal;font-variant:normal;font-weight:bold;font-stretch:normal;font-family:'Helvetica Neue';-inkscape-font-specification:'Helvetica Neue Bold'"
             d="m 87.719999,-16.254 0,-9.202 5.246,0 q 1.161,0 2.236,0.172 1.075,0.172 1.892,0.688 0.817,0.473 1.29,1.376 0.516,0.903 0.516,2.365 0,1.462 -0.516,2.365 -0.473,0.903 -1.29,1.419 -0.817,0.473 -1.892,0.645 -1.075,0.172 -2.236,0.172 l -5.246,0 z m -6.751,-14.448 0,30.702 6.751,0 0,-11.008 7.095,0 q 2.881,0 4.902,-0.817 2.021001,-0.86 3.268001,-2.236 1.29,-1.376 1.849,-3.139 0.602,-1.806 0.602,-3.655 0,-1.892 -0.602,-3.655 -0.559,-1.763 -1.849,-3.139 -1.247,-1.376 -3.268001,-2.193 -2.021,-0.86 -4.902,-0.86 l -13.846,0 z" />
             <path
             id="path4314"
             style="font-style:normal;font-variant:normal;font-weight:bold;font-stretch:normal;font-family:'Helvetica Neue';-inkscape-font-specification:'Helvetica Neue Bold'"
             d="m 114.251,-10.191 -6.536,0 q -0.043,2.838 1.032,4.902 1.075,2.064 2.881,3.397 1.849,1.333 4.214,1.935 2.408,0.645 4.945,0.645 3.139,0 5.504,-0.731 2.408,-0.731 3.999,-2.021 1.634,-1.333 2.451,-3.139 0.817,-1.806 0.817,-3.913 0,-2.58 -1.118,-4.214 -1.075,-1.677 -2.58,-2.666 -1.505,-0.989 -3.053,-1.419 -1.505,-0.473 -2.365,-0.645 -2.881,-0.731 -4.687,-1.204 -1.763,-0.473 -2.795,-0.946 -0.989,-0.473 -1.333,-1.032 -0.344,-0.559 -0.344,-1.462 0,-0.989 0.43,-1.634 0.43,-0.645 1.075,-1.075 0.688,-0.43 1.505,-0.602 0.817,-0.172 1.634,-0.172 1.247,0 2.279,0.215 1.075,0.215 1.892,0.731 0.817,0.516 1.29,1.419 0.516,0.903 0.602,2.279 l 6.536,0 q 0,-2.666 -1.032,-4.515 -0.989,-1.892 -2.709,-3.096 -1.72,-1.204 -3.956,-1.72 -2.193,-0.559 -4.601,-0.559 -2.064,0 -4.128,0.559 -2.064,0.559 -3.698,1.72 -1.634,1.161 -2.666,2.924 -0.989,1.72 -0.989,4.085 0,2.107 0.774,3.612 0.817,1.462 2.107,2.451 1.29,0.989 2.924,1.634 1.634,0.602 3.354,1.032 1.677,0.473 3.311,0.86 1.634,0.387 2.924,0.903 1.29,0.516 2.064,1.29 0.817,0.774 0.817,2.021 0,1.161 -0.602,1.935 -0.602,0.731 -1.505,1.161 -0.903,0.43 -1.935,0.602 -1.032,0.129 -1.935,0.129 -1.333,0 -2.58,-0.301 -1.247,-0.344 -2.193,-0.989 -0.903,-0.688 -1.462,-1.763 -0.559,-1.075 -0.559,-2.623 z" />
             </g></g></g>
    <g id="g94">
         <g
           transform="matrix(0.7734375,0,0,-0.7734375,227.6594,330.6256)"
           id="g102">
           <path
             id="path104"
             style="fill:none;stroke:#ff0000;stroke-width:1;stroke-linecap:butt;stroke-linejoin:miter;stroke-miterlimit:4;stroke-dasharray:none;stroke-opacity:1"
             d="M 0,0 144.545,0" />
             </g></g></g></svg>