<?xml version="1.0" encoding="UTF-8" standalone="no"?>
<!-- Created with Inkscape (http://www.inkscape.org/) -->

<svg
   xmlns:dc="http://purl.org/dc/elements/1.1/"
   xmlns:cc="http://creativecommons.org/ns#"
   xmlns:rdf="http://www.w3.org/1999/02/22-rdf-syntax-ns#"
   xmlns:svg="http://www.w3.org/2000/svg"
   xmlns="http://www.w3.org/2000/svg"
   xmlns:sodipodi="http://sodipodi.sourceforge.net/DTD/sodipodi-0.dtd"
   xmlns:inkscape="http://www.inkscape.org/namespaces/inkscape"
   width="220.13333mm"
   height="185.58932mm"
   viewBox="0 0 779.99999 657.59997"
   id="svg2"
   version="1.1"
   inkscape:version="0.91 r13725"
   sodipodi:docname="logo-plain.svg"
   inkscape:export-filename="/Users/asrich/ownCloud/Documents/PPPS Site/ppc2017/logo/logo.png"
   inkscape:export-xdpi="600.03284"
   inkscape:export-ydpi="600.03284">
  <defs
     id="defs4" />
  <sodipodi:namedview
     id="base"
     pagecolor="#ffffff"
     bordercolor="#666666"
     borderopacity="1.0"
     inkscape:pageopacity="0.0"
     inkscape:pageshadow="2"
     inkscape:zoom="1.08"
     inkscape:cx="444.74586"
     inkscape:cy="339.30601"
     inkscape:document-units="px"
     inkscape:current-layer="layer2"
     showgrid="false"
     fit-margin-top="0"
     fit-margin-left="0"
     fit-margin-right="0"
     fit-margin-bottom="0"
     inkscape:window-width="1591"
     inkscape:window-height="1063"
     inkscape:window-x="134"
     inkscape:window-y="30"
     inkscape:window-maximized="0"
     showguides="false" />
  <metadata
     id="metadata7">
    <rdf:RDF>
      <cc:Work
         rdf:about="">
        <dc:format>image/svg+xml</dc:format>
        <dc:type
           rdf:resource="http://purl.org/dc/dcmitype/StillImage" />
        <dc:title></dc:title>
      </cc:Work>
    </rdf:RDF>
  </metadata>
  <g
     inkscape:groupmode="layer"
     id="layer3"
     inkscape:label="back"
     style="display:inline">
    <rect
       style="opacity:0.77999998;fill:#ffffff;fill-opacity:1;stroke:none;stroke-width:1;stroke-linecap:square;stroke-linejoin:miter;stroke-miterlimit:5;stroke-dasharray:none;stroke-dashoffset:0;stroke-opacity:1"
       id="rect4287"
       width="780.84796"
       height="655.57965"
       x="-4.4335939e-06"
       y="-5.0618414e-08" />
  </g>
  <g
     inkscape:groupmode="layer"
     id="layer6"
     inkscape:label="logo shapes 1"
     style="display:inline">
    <ellipse
       ry="322.16608"
       rx="322.16605"
       cy="328.7879"
       cx="340.80005"
       id="ellipse4344"
       style="display:inline;opacity:1;fill:#000000;fill-opacity:1;stroke:none;stroke-width:1;stroke-linecap:butt;stroke-linejoin:miter;stroke-miterlimit:4;stroke-dasharray:none;stroke-dashoffset:0;stroke-opacity:1" />
    <ellipse
       style="display:inline;opacity:1;fill:#ffffff;fill-opacity:1;stroke:none;stroke-width:1;stroke-linecap:butt;stroke-linejoin:miter;stroke-miterlimit:4;stroke-dasharray:none;stroke-dashoffset:0;stroke-opacity:1"
       id="ellipse4349"
       cx="340.80005"
       cy="328.7879"
       rx="215.15479"
       ry="215.1548" />
    <ellipse
       style="display:inline;opacity:1;fill:none;fill-opacity:1;stroke:#000101;stroke-width:4.09876919;stroke-linecap:butt;stroke-linejoin:miter;stroke-miterlimit:4;stroke-dasharray:none;stroke-dashoffset:0;stroke-opacity:1"
       id="path4342"
       cx="342"
       cy="329.68796"
       rx="203.45061"
       ry="203.45062" />
    <rect
       style="opacity:1;fill:#ffffff;fill-opacity:1;stroke:#000000;stroke-width:0;stroke-linecap:butt;stroke-linejoin:miter;stroke-miterlimit:4;stroke-dasharray:none;stroke-dashoffset:0;stroke-opacity:1"
       id="rect4817"
       width="179.33632"
       height="117.78897"
       x="7.4281306"
       y="302.11075" />
    <rect
       style="opacity:1;fill:#ffffff;fill-opacity:1;stroke:#000000;stroke-width:0;stroke-linecap:butt;stroke-linejoin:miter;stroke-miterlimit:4;stroke-dasharray:none;stroke-dashoffset:0;stroke-opacity:1"
       id="rect4819"
       width="193.13145"
       height="111.422"
       x="515.72467"
       y="312.72238" />
    <path
       style="opacity:1;fill:#ffffff;fill-opacity:1;stroke:#000000;stroke-width:0;stroke-linecap:butt;stroke-linejoin:miter;stroke-miterlimit:4;stroke-dasharray:none;stroke-dashoffset:0;stroke-opacity:1"
       d="m 631.7021,254.68948 50.93577,34.51632 0.75035,190.119 -50.93577,0 z"
       id="rect4821"
       inkscape:connector-curvature="0"
       sodipodi:nodetypes="ccccc" />
    <path
       style="fill:#ffffff;fill-opacity:1;fill-rule:evenodd;stroke:none;stroke-width:1px;stroke-linecap:butt;stroke-linejoin:miter;stroke-opacity:1"
       d="M 306.25645,147.12408 310.96619,1.422192 316.19827,2.1984975 340.86866,135.44897 Z"
       id="path4824"
       inkscape:connector-curvature="0"
       sodipodi:nodetypes="ccccc" />
  </g>
  <g
     inkscape:groupmode="layer"
     id="layer7"
     inkscape:label="arrow"
     style="display:inline">
    <path
       style="fill:#000101;fill-opacity:1;fill-rule:evenodd;stroke:#000101;stroke-width:1px;stroke-linecap:butt;stroke-linejoin:miter;stroke-opacity:1"
       d="m 7.4293025,359.99086 c 0.2185089,21.41387 2.6221075,31.68379 8.5218475,47.85345 l 331.69651,-2.62211 c 6.55527,-0.87404 6.11824,-9.17737 6.11824,-9.17737 l 3.27764,-69.92285 c 23.81747,52.44214 48.07196,77.35215 95.7069,84.34443 l 192.06932,-0.65552 0.65552,45.88686 126.73516,-90.46268 -128.92025,-88.4961 0.21851,46.54239 -195.78397,0.87404 C 377.58337,313.01144 359.01012,239.15544 319.02299,89.91386 l -5.24421,198.40608 c -1.96658,18.13624 -15.95116,22.50641 -25.34704,22.94343 l -279.4728752,1.96658 0,2.84062 279.4728752,-2.18509 c 6.11825,0.21851 27.0951,-2.84061 27.96914,-25.56554 0,0 4.37018,-127.8277 5.68123,-173.93308 31.24677,108.38041 49.16451,201.02819 126.07964,212.39065 l 197.75055,-1.31106 0,-43.04625 123.02051,83.25189 -4.58869,3.49614 -315.52684,1.09255 C 415.82244,368.2942 386.32373,348.8469 344.80704,289.41248 l -1.74807,59.43442 c -0.43702,4.15167 -1.52956,8.30335 -11.79948,9.39589 z"
       id="path4869"
       inkscape:connector-curvature="0"
       sodipodi:nodetypes="cccccccccccccccccccccccccccccc" />
  </g>
  <g
     inkscape:groupmode="layer"
     id="layer2"
     inkscape:label="Text"
     style="display:inline">
    <ellipse
       ry="249.4678"
       rx="249.46779"
       cy="411.91321"
       cx="-239.54173"
       id="ellipse4253"
       style="opacity:0.77999998;fill:none;fill-opacity:1;stroke:none;stroke-width:1.06439686;stroke-linecap:square;stroke-linejoin:miter;stroke-miterlimit:5;stroke-dasharray:none;stroke-dashoffset:0;stroke-opacity:1"
       transform="matrix(0.2381988,-0.97121642,0.97121642,0.2381988,0,0)" />
    <ellipse
       transform="matrix(-0.94081268,-0.338927,0.338927,-0.94081268,0,0)"
       style="opacity:0.77999998;fill:none;fill-opacity:1;stroke:none;stroke-width:1.06439686;stroke-linecap:square;stroke-linejoin:miter;stroke-miterlimit:5;stroke-dasharray:none;stroke-dashoffset:0;stroke-opacity:1"
       id="path4222"
       cx="-434.80203"
       cy="-194.93565"
       rx="249.46779"
       ry="249.4678" />
    <g
       style="font-style:normal;font-weight:normal;font-size:40px;line-height:125%;font-family:Sans;letter-spacing:0px;word-spacing:0px;fill:#000000;fill-opacity:1;stroke:none;stroke-width:1px;stroke-linecap:butt;stroke-linejoin:miter;stroke-opacity:1"
       id="text4246">
      <path
         d="m 92.491271,224.20014 -11.698085,-5.29343 3.017749,-6.669 q 0.667863,-1.47593 1.50491,-2.74359 0.837047,-1.26765 1.962992,-2.00944 1.071281,-0.76652 2.491316,-0.84838 1.444771,-0.13652 3.303345,0.7045 1.858574,0.84101 2.70969,2.01642 0.87585,1.12076 1.06184,2.4562 0.131326,1.31071 -0.268409,2.77625 -0.399736,1.46554 -1.067598,2.94147 l -3.01775,6.669 z m -22.250584,0.27106 39.030063,17.66125 3.88349,-8.58224 -13.993967,-6.33232 4.081387,-9.01956 q 1.65728,-3.66248 1.78125,-6.70166 0.0693,-3.06392 -0.96262,-5.44072 -1.00718,-2.43146 -2.92684,-4.15625 -1.949583,-1.80419 -4.300133,-2.86783 -2.405214,-1.08836 -4.992735,-1.33723 -2.562785,-0.30353 -5.054101,0.54485 -2.466581,0.79371 -4.667771,2.89294 -2.255855,2.07449 -3.913144,5.73698 l -7.964879,17.60179 z"
         style="font-style:normal;font-variant:normal;font-weight:bold;font-stretch:normal;font-size:60px;font-family:'Helvetica Neue';-inkscape-font-specification:'Helvetica Neue Bold';letter-spacing:-2.5px;fill:#ffffff;fill-opacity:1"
         id="path4261" />
      <path
         d="m 131.53752,168.79544 -22.21877,-14.69748 -5.19708,7.85663 22.21877,14.69748 q 4.00338,2.6482 4.84571,5.50744 0.79228,2.82615 -1.98832,7.0297 -1.58892,2.40203 -3.19944,3.42292 -1.62746,0.93775 -3.20799,1.04328 -1.63056,0.0724 -3.19726,-0.60424 -1.5667,-0.67666 -3.01792,-1.63663 l -22.218769,-14.69748 -5.197082,7.85664 22.218771,14.69748 q 7.30617,4.83296 13.42422,3.19679 6.15115,-1.68621 10.95101,-8.94234 4.73364,-7.15605 3.91198,-13.52664 -0.8717,-6.4037 -8.12783,-11.20355 z"
         style="font-style:normal;font-variant:normal;font-weight:bold;font-stretch:normal;font-size:60px;font-family:'Helvetica Neue';-inkscape-font-specification:'Helvetica Neue Bold';letter-spacing:-2.5px;fill:#ffffff;fill-opacity:1"
         id="path4263" />
      <path
         d="m 117.08204,144.66805 31.75479,28.75584 20.33852,-22.45963 -5.87063,-5.3162 -14.01546,15.47713 -25.88416,-23.43964 -6.32306,6.9825 z"
         style="font-style:normal;font-variant:normal;font-weight:bold;font-stretch:normal;font-size:60px;font-family:'Helvetica Neue';-inkscape-font-specification:'Helvetica Neue Bold';letter-spacing:-2.5px;fill:#ffffff;fill-opacity:1"
         id="path4265" />
      <path
         d="m 167.05366,134.09418 -7.00302,5.84228 q 2.49071,3.07921 5.48745,4.32979 2.99674,1.25058 6.1233,1.06451 3.17263,-0.2245 6.24472,-1.69347 3.1566,-1.46133 5.87488,-3.72906 3.36328,-2.80583 5.24386,-5.70305 1.92664,-2.93565 2.47824,-5.73995 0.55924,-2.88882 -0.1797,-5.55415 -0.73894,-2.66532 -2.6223,-4.92287 -2.30617,-2.76435 -4.96462,-3.51577 -2.65082,-0.83592 -5.14738,-0.55033 -2.49656,0.2856 -4.53953,1.20857 -2.03534,0.83847 -3.11053,1.4229 -3.74027,1.79198 -6.09811,2.8995 -2.31176,1.06908 -3.8403,1.48475 -1.48246,0.37723 -2.35071,0.0858 -0.86825,-0.29145 -1.6754,-1.25897 -0.88403,-1.05967 -0.99985,-2.13511 -0.11581,-1.07545 0.19091,-2.11272 0.3528,-1.0757 1.07443,-1.99027 0.72164,-0.91458 1.59701,-1.64486 1.3361,-1.11465 2.63402,-1.80675 1.34399,-0.73054 2.6806,-0.90795 1.33661,-0.17742 2.65057,0.36731 1.36002,0.50628 2.68212,1.90373 l 7.00301,-5.84228 q -2.38303,-2.85649 -5.14152,-3.91514 -2.75085,-1.14316 -5.66996,-0.89575 -2.91911,0.24742 -5.77611,1.69322 -2.84936,1.3613 -5.42942,3.51372 -2.21148,1.84493 -3.92328,4.2888 -1.71181,2.44387 -2.42479,5.1484 -0.71298,2.70452 -0.24285,5.51596 0.47778,2.72692 2.59176,5.26091 1.88337,2.25755 4.05793,3.17824 2.18221,0.83617 4.44841,0.74276 2.2662,-0.0934 4.59349,-0.8629 2.28886,-0.81555 4.51612,-1.89227 2.21962,-0.99221 4.3163,-2.03813 2.09668,-1.04591 3.94008,-1.64613 1.84341,-0.60021 3.36456,-0.46275 1.56723,0.099 2.68187,1.43512 1.03778,1.24396 1.08461,2.61136 0.008,1.32134 -0.57476,2.58922 -0.58316,1.26788 -1.53516,2.37464 -0.99043,1.06068 -1.95795,1.86784 -1.42825,1.19151 -3.0334,1.98365 -1.64359,0.74607 -3.23372,0.90057 -1.5825,0.07 -3.14234,-0.58214 -1.55985,-0.65214 -2.94354,-2.31075 z"
         style="font-style:normal;font-variant:normal;font-weight:bold;font-stretch:normal;font-size:60px;font-family:'Helvetica Neue';-inkscape-font-specification:'Helvetica Neue Bold';letter-spacing:-2.5px;fill:#ffffff;fill-opacity:1"
         id="path4267" />
      <path
         d="m 177.10263,89.58955 22.38756,36.52482 27.72613,-16.99447 -4.13888,-6.75249 -19.69476,12.07172 -5.48714,-8.95216 17.6997,-10.848875 -3.82532,-6.240936 -17.69971,10.848873 -4.79733,-7.826748 19.28551,-11.820882 -4.13887,-6.752489 -27.31689,16.743637 z"
         style="font-style:normal;font-variant:normal;font-weight:bold;font-stretch:normal;font-size:60px;font-family:'Helvetica Neue';-inkscape-font-specification:'Helvetica Neue Bold';letter-spacing:-2.5px;fill:#ffffff;fill-opacity:1"
         id="path4269" />
      <path
         d="m 236.26246,96.393889 -10.37115,-24.928683 6.20448,-2.581264 q 3.21303,-1.336726 5.76531,-1.293809 2.58464,-0.03553 4.62862,1.128655 2.04399,1.164181 3.61203,3.371183 1.60039,2.128557 2.84492,5.119999 1.35978,3.268427 1.47375,5.885412 0.11397,2.616985 -0.67174,4.633484 -0.80875,1.961102 -2.32794,3.307974 -1.51919,1.346872 -3.40269,2.130469 l -7.75559,3.22658 z m -22.11069,-28.622719 16.45556,39.55351 17.06229,-7.09847 q 4.54256,-1.889858 7.24412,-4.768398 2.73391,-2.956985 3.84353,-6.537925 1.16503,-3.603986 0.75187,-7.721133 -0.41316,-4.117147 -2.21083,-8.438119 -2.05118,-4.93034 -4.95721,-8.010372 -2.85063,-3.103079 -6.30217,-4.526482 -3.39614,-1.44645 -7.227,-1.282366 -3.77546,0.141037 -7.59786,1.73128 l -17.0623,7.098475 z"
         style="font-style:normal;font-variant:normal;font-weight:bold;font-stretch:normal;font-size:60px;font-family:'Helvetica Neue';-inkscape-font-specification:'Helvetica Neue Bold';letter-spacing:-2.5px;fill:#ffffff;fill-opacity:1"
         id="path4271" />
    </g>
    <g
       style="font-style:normal;font-weight:normal;font-size:40px;line-height:125%;font-family:Sans;letter-spacing:0px;word-spacing:0px;fill:#000000;fill-opacity:1;stroke:none;stroke-width:1px;stroke-linecap:butt;stroke-linejoin:miter;stroke-opacity:1"
       id="text4255">
      <path
         d="m 422.65138,70.446908 4.035,-12.189519 6.94916,2.300327 q 1.53793,0.509089 2.88652,1.208309 1.34859,0.69922 2.20458,1.740992 0.87484,0.984811 1.10544,2.388386 0.28757,1.422429 -0.35351,3.359082 -0.64107,1.936652 -1.72055,2.906558 -1.02252,0.988762 -2.33103,1.314038 -1.28966,0.268317 -2.78909,0.02478 -1.49943,-0.243537 -3.03736,-0.752626 l -6.94916,-2.300327 z m -2.60745,-22.098941 -13.46257,40.669705 8.94278,2.960256 4.82691,-14.581854 9.39846,3.111097 q 3.81635,1.263295 6.85173,1.067239 3.05424,-0.253016 5.30946,-1.528949 2.31217,-1.257078 3.82572,-3.347336 1.58936,-2.128364 2.40013,-4.577659 0.82963,-2.506257 0.80524,-5.105604 0.0326,-2.580492 -1.07287,-4.968878 -1.04849,-2.369531 -3.36737,-4.337969 -2.30004,-2.025399 -6.11638,-3.288693 l -18.34124,-6.071355 z"
         style="font-style:normal;font-variant:normal;font-weight:bold;font-stretch:normal;font-size:60px;font-family:'Helvetica Neue';-inkscape-font-specification:'Helvetica Neue Bold';letter-spacing:-2.5px;fill:#ffffff;fill-opacity:1"
         id="path4250" />
      <path
         d="m 458.71517,85.705866 q 1.31013,-2.49719 3.06796,-4.556233 1.81095,-2.031168 3.98073,-3.196517 2.19766,-1.218482 4.72104,-1.249736 2.55125,-0.08438 5.36723,1.392997 2.81598,1.477382 4.19647,3.624528 1.40837,2.094013 1.65477,4.594751 0.27428,2.447605 -0.42091,5.064151 -0.64206,2.644421 -1.95219,5.141611 -1.25438,2.390926 -3.03746,4.368962 -1.70207,1.95278 -3.87186,3.11813 -2.16978,1.16535 -4.72103,1.24973 -2.52338,0.0313 -5.33936,-1.44612 -2.81598,-1.47739 -4.22435,-3.5714 -1.38049,-2.147145 -1.65477,-4.59475 -0.27427,-2.447606 0.31204,-4.985764 0.66731,-2.563414 1.92169,-4.95434 z M 450.3735,81.32947 q -2.17426,4.144272 -2.79461,8.42623 -0.59248,4.228827 0.40469,8.139793 0.99717,3.910967 3.64235,7.263667 2.72619,3.32745 7.08299,5.61321 4.40993,2.31363 8.644,2.63783 4.26193,0.27107 8.04662,-1.13114 3.78468,-1.4022 6.92748,-4.29302 3.17066,-2.94395 5.34493,-7.08823 2.23001,-4.250532 2.85035,-8.53249 0.64823,-4.33509 -0.32107,-8.299187 -0.96929,-3.964098 -3.61447,-7.316801 -2.64518,-3.352703 -7.05511,-5.666339 -4.3568,-2.285761 -8.67187,-2.5847 -4.26194,-0.271065 -8.0745,1.18427 -3.81256,1.455336 -7.0111,4.452419 -3.17067,2.943952 -5.40068,7.194488 z"
         style="font-style:normal;font-variant:normal;font-weight:bold;font-stretch:normal;font-size:60px;font-family:'Helvetica Neue';-inkscape-font-specification:'Helvetica Neue Bold';letter-spacing:-2.5px;fill:#ffffff;fill-opacity:1"
         id="path4252" />
      <path
         d="m 512.925,147.29627 35.92385,-26.02793 -7.17837,-5.81797 -24.04095,18.51333 -0.0932,-0.0756 12.90051,-27.5425 -6.85207,-5.55352 -24.14057,17.9692 -0.0932,-0.0755 13.09335,-26.922824 -7.3182,-5.931301 -18.16439,40.421725 7.41143,6.00686 23.9075,-18.15809 0.0932,0.0756 -12.72045,27.22505 7.27159,5.89352 z"
         style="font-style:normal;font-variant:normal;font-weight:bold;font-stretch:normal;font-size:60px;font-family:'Helvetica Neue';-inkscape-font-specification:'Helvetica Neue Bold';letter-spacing:-2.5px;fill:#ffffff;fill-opacity:1"
         id="path4254" />
      <path
         d="m 554.94884,128.84625 -32.53451,27.87061 21.15667,24.69707 6.01479,-5.15255 -15.02827,-17.54312 7.97415,-6.83103 13.50592,15.76603 5.55912,-4.76221 -13.50592,-15.76603 6.97168,-5.97227 14.71599,17.17859 6.01479,-5.15255 -20.84441,-24.33254 z"
         style="font-style:normal;font-variant:normal;font-weight:bold;font-stretch:normal;font-size:60px;font-family:'Helvetica Neue';-inkscape-font-specification:'Helvetica Neue Bold';letter-spacing:-2.5px;fill:#ffffff;fill-opacity:1"
         id="path4256" />
      <path
         d="m 570.74955,180.15128 10.2517,-6.35187 5.43543,8.7726 q 1.70647,2.75419 1.33562,4.88972 -0.31984,2.10392 -2.97203,3.74719 -2.75418,1.70647 -4.8315,1.08781 -2.07732,-0.61866 -3.78379,-3.37285 l -5.43543,-8.7726 z m 11.51272,-18.21478 -36.4165,22.56335 4.96141,8.00755 14.22998,-8.81677 4.9614,8.00755 q 1.86448,3.0092 1.36003,5.15693 -0.50446,2.14772 -3.10785,4.32542 -2.00354,1.66488 -4.3059,3.30315 -2.30236,1.63828 -3.62566,3.37577 l 4.96141,8.00755 q 0.41743,-1.03506 1.2989,-2.00471 0.96407,-0.95025 2.09335,-1.86169 1.16088,-0.86044 2.30236,-1.63827 1.14148,-0.77784 1.97694,-1.36606 1.31389,-0.95524 2.50138,-2.1145 1.21908,-1.10825 1.96194,-2.41553 0.79387,-1.33887 1.0095,-2.81355 0.26663,-1.50629 -0.24178,-3.23821 l 0.10201,-0.0632 q 3.12016,2.30178 6.28796,2.17421 3.1994,-0.0766 6.41262,-2.06745 2.09114,-1.29565 3.40224,-3.16675 1.39371,-1.8517 1.88597,-4.13303 0.52386,-2.23033 0.0565,-4.69349 -0.3848,-2.44375 -1.90166,-4.89192 L 582.26227,161.9365 Z"
         style="font-style:normal;font-variant:normal;font-weight:bold;font-stretch:normal;font-size:60px;font-family:'Helvetica Neue';-inkscape-font-specification:'Helvetica Neue Bold';letter-spacing:-2.5px;fill:#ffffff;fill-opacity:1"
         id="path4258" />
    </g>
    <ellipse
       transform="matrix(-0.65848566,0.75259327,0.7525962,0.65848232,0,0)"
       style="opacity:0.77999998;fill:none;fill-opacity:1;stroke:none;stroke-width:1.25169945;stroke-linecap:square;stroke-linejoin:miter;stroke-miterlimit:5;stroke-dasharray:none;stroke-dashoffset:0;stroke-opacity:1"
       id="ellipse4265"
       cx="23.084911"
       cy="475.94901"
       rx="293.36734"
       ry="293.36627" />
    <g
       style="font-style:normal;font-weight:normal;font-size:40px;line-height:125%;font-family:Sans;letter-spacing:0px;word-spacing:0px;fill:#000000;fill-opacity:1;stroke:none;stroke-width:1px;stroke-linecap:butt;stroke-linejoin:miter;stroke-opacity:1"
       id="text4267">
      <path
         d="m 192.52684,549.10841 7.29316,5.47578 q 1.89768,-3.22702 2.33137,-6.50279 0.4337,-3.27578 -0.42872,-6.32423 -0.77841,-3.0604 -2.709,-5.7854 -1.88261,-2.68898 -4.71351,-4.81444 -3.93447,-2.95404 -8.14596,-3.94022 -4.16351,-0.95016 -8.15994,-0.12423 -3.99642,0.82593 -7.63369,3.27205 -3.60124,2.39813 -6.48323,6.23664 -2.80994,3.74254 -4.10808,7.86987 -1.26212,4.07935 -0.9042,8.09953 0.35792,4.02019 2.43199,7.75326 2.15807,3.72112 6.09254,6.67516 3.16677,2.37764 6.52624,3.39938 3.35947,1.02174 6.69565,0.67547 3.33618,-0.34627 6.48105,-2.03664 3.14488,-1.69037 5.84644,-4.68897 l -7.29317,-5.47578 q -3.02562,3.13043 -6.57795,3.76459 -3.50435,0.67018 -6.959,-1.92361 -2.54302,-1.90931 -3.59783,-4.20186 -1.01879,-2.34053 -0.89751,-4.80047 0.12127,-2.45993 1.10652,-4.87142 1.06926,-2.42345 2.69038,-4.58261 1.69317,-2.25512 3.75807,-4.00605 2.11289,-1.71491 4.44131,-2.5177 2.36444,-0.85078 4.86025,-0.47748 2.53183,0.32531 5.07484,2.23462 1.39146,1.04473 2.27872,2.46119 0.97128,1.4045 1.36646,2.9767 0.39519,1.57221 0.23835,3.18013 -0.1208,1.55994 -0.90155,2.99953 z"
         style="font-style:normal;font-variant:normal;font-weight:bold;font-stretch:normal;font-size:60px;font-family:'Helvetica Neue';-inkscape-font-specification:'Helvetica Neue Bold';letter-spacing:3px;fill:#ffffff;fill-opacity:1"
         id="path4337" />
      <path
         d="m 207.55726,567.15679 q 1.29889,-2.50305 3.04743,-4.56998 1.8018,-2.03929 3.96632,-3.21439 2.19216,-1.22835 4.71537,-1.27095 2.55084,-0.0959 5.37344,1.36884 2.82259,1.4647 4.21273,3.60562 1.41777,2.08766 1.67542,4.58726 0.28528,2.44635 -0.39814,5.06599 -0.63015,2.64728 -1.92904,5.15034 -1.24362,2.39655 -3.01778,4.38258 -1.69327,1.96042 -3.85779,3.13551 -2.16452,1.1751 -4.71537,1.27096 -2.52321,0.0426 -5.3458,-1.4221 -2.8226,-1.4647 -4.24037,-3.55236 -1.39014,-2.14092 -1.67542,-4.58727 -0.28528,-2.44634 0.2896,-4.98711 0.65578,-2.56639 1.8994,-4.96294 z m -8.36128,-4.33883 q -2.1556,4.15401 -2.75668,8.43871 -0.57345,4.23145 0.4413,8.13789 1.01475,3.90645 3.67498,7.24722 2.74113,3.31515 7.10816,5.58129 4.42029,2.29378 8.65577,2.59893 4.26312,0.2519 8.04146,-1.16732 3.77834,-1.41921 6.9081,-4.32413 3.15739,-2.95818 5.31299,-7.11219 2.21088,-4.26053 2.81196,-8.54523 0.62872,-4.33796 -0.35839,-8.29766 -0.98712,-3.9597 -3.64735,-7.30047 -2.66023,-3.34077 -7.08052,-5.63455 -4.36704,-2.26614 -8.68341,-2.54567 -4.26312,-0.2519 -8.06909,1.22057 -3.80597,1.47247 -6.99101,4.48391 -3.15739,2.95818 -5.36827,7.2187 z"
         style="font-style:normal;font-variant:normal;font-weight:bold;font-stretch:normal;font-size:60px;font-family:'Helvetica Neue';-inkscape-font-specification:'Helvetica Neue Bold';letter-spacing:3px;fill:#ffffff;fill-opacity:1"
         id="path4339" />
      <path
         d="m 248.68153,563.66635 -13.16203,40.76796 8.39341,2.70983 8.81155,-27.29283 0.1142,0.0369 8.14654,32.76779 8.96439,2.89417 13.16203,-40.76796 -8.39341,-2.70983 -8.82999,27.34994 -0.11419,-0.0369 -8.18521,-32.84333 -8.90729,-2.87574 z"
         style="font-style:normal;font-variant:normal;font-weight:bold;font-stretch:normal;font-size:60px;font-family:'Helvetica Neue';-inkscape-font-specification:'Helvetica Neue Bold';letter-spacing:3px;fill:#ffffff;fill-opacity:1"
         id="path4341" />
      <path
         d="m 288.04324,575.63856 -7.05365,42.25531 9.29144,1.55102 2.91432,-17.45843 17.69515,2.95384 1.20525,-7.2201 -17.69515,-2.95384 1.63004,-9.76488 20.41749,3.40827 1.30403,-7.8119 -29.70892,-4.95929 z"
         style="font-style:normal;font-variant:normal;font-weight:bold;font-stretch:normal;font-size:60px;font-family:'Helvetica Neue';-inkscape-font-specification:'Helvetica Neue Bold';letter-spacing:3px;fill:#ffffff;fill-opacity:1"
         id="path4343" />
      <path
         d="m 320.33754,580.76099 -1.23962,42.82206 32.50638,0.941 0.22918,-7.91668 -23.09033,-0.66842 0.30383,-10.49561 20.75131,0.60071 0.21181,-7.31693 -20.75131,-0.60071 0.26563,-9.17616 22.61053,0.65454 0.22918,-7.91669 -32.02659,-0.92711 z"
         style="font-style:normal;font-variant:normal;font-weight:bold;font-stretch:normal;font-size:60px;font-family:'Helvetica Neue';-inkscape-font-specification:'Helvetica Neue Bold';letter-spacing:3px;fill:#ffffff;fill-opacity:1"
         id="path4345" />
      <path
         d="m 367.4584,599.69355 -1.44649,-11.97294 10.24549,-1.2378 q 3.21662,-0.38861 4.99764,0.84669 1.77382,1.17573 2.14804,4.27321 0.38861,3.21661 -1.04698,4.84052 -1.43559,1.62391 -4.6522,2.01252 l -10.2455,1.2378 z m -11.67646,-18.11025 5.13829,42.53074 9.352,-1.12985 -2.00782,-16.61915 9.35199,-1.12985 q 3.51445,-0.4246 5.2503,0.93703 1.73584,1.36163 2.61538,4.6398 0.66685,2.5182 1.18379,5.29625 0.51693,2.77806 1.53598,4.70977 l 9.352,-1.12985 q -0.76318,-0.81434 -1.27171,-2.02206 -0.45616,-1.27449 -0.80757,-2.68251 -0.29185,-1.41521 -0.51694,-2.77805 -0.22509,-1.36284 -0.40699,-2.36828 -0.31344,-1.59391 -0.86515,-3.15904 -0.49214,-1.57232 -1.36526,-2.79643 -0.88032,-1.28368 -2.12724,-2.10002 -1.25411,-0.8759 -3.03912,-1.14374 l -0.0144,-0.11913 q 3.40129,-1.8614 4.61899,-4.78858 1.27727,-2.93438 0.82389,-6.68709 -0.29506,-2.44225 -1.44044,-4.41914 -1.09301,-2.04365 -2.95518,-3.45046 -1.80261,-1.414 -4.23367,-2.02684 -2.37868,-0.6796 -5.23789,-0.33417 l -22.93324,2.77065 z"
         style="font-style:normal;font-variant:normal;font-weight:bold;font-stretch:normal;font-size:60px;font-family:'Helvetica Neue';-inkscape-font-specification:'Helvetica Neue Bold';letter-spacing:3px;fill:#ffffff;fill-opacity:1"
         id="path4347" />
      <path
         d="m 395.30087,576.27428 11.41347,41.29162 31.34462,-8.664 -2.11005,-7.63374 -22.26509,6.15431 -2.79742,-10.12049 20.00967,-5.5309 -1.9502,-7.05543 -20.00967,5.53089 -2.44574,-8.8482 21.80244,-6.02644 -2.11005,-7.63374 -30.88198,8.53612 z"
         style="font-style:normal;font-variant:normal;font-weight:bold;font-stretch:normal;font-size:60px;font-family:'Helvetica Neue';-inkscape-font-specification:'Helvetica Neue Bold';letter-spacing:3px;fill:#ffffff;fill-opacity:1"
         id="path4349" />
      <path
         d="m 429.31092,566.72031 17.54658,39.08175 8.04624,-3.61253 -11.74687,-26.16397 0.10947,-0.0492 28.00357,18.86519 8.5936,-3.85829 -17.54658,-39.08175 -8.04624,3.61254 11.77144,26.2187 -0.10947,0.0492 -28.08287,-18.89534 -8.53887,3.8337 z"
         style="font-style:normal;font-variant:normal;font-weight:bold;font-stretch:normal;font-size:60px;font-family:'Helvetica Neue';-inkscape-font-specification:'Helvetica Neue Bold';letter-spacing:3px;fill:#ffffff;fill-opacity:1"
         id="path4351" />
      <path
         d="m 497.87953,546.05116 7.60484,-5.03397 q -2.40355,-2.87014 -5.34409,-4.37748 -2.94053,-1.50733 -6.10165,-1.71739 -3.1442,-0.2932 -6.3589,0.61152 -3.16467,0.87161 -6.11654,2.82558 -4.10261,2.71569 -6.44429,6.35242 -2.29164,3.60361 -2.85404,7.64555 -0.56241,4.04194 0.52199,8.28897 1.05127,4.19701 3.70073,8.19955 2.58322,3.90249 6.03602,6.50981 3.41968,2.5573 7.32702,3.56857 3.90735,1.01127 8.11984,0.30951 4.22942,-0.78491 8.33203,-3.5006 3.3021,-2.1858 5.39148,-5.00794 2.08939,-2.82214 2.8822,-6.08119 0.79282,-3.25906 0.25523,-6.78873 -0.53759,-3.52968 -2.45632,-7.08052 l -7.60484,5.03397 q 1.93423,3.90035 1.34013,7.4596 -0.54408,3.52613 -4.14637,5.91064 -2.65169,1.75527 -5.16523,1.98 -2.54666,0.17471 -4.82341,-0.76466 -2.27675,-0.93936 -4.21807,-2.6764 -1.9244,-1.82018 -3.41472,-4.07162 -1.55655,-2.35149 -2.51343,-4.88407 -0.90686,-2.56571 -0.88214,-5.02851 -0.008,-2.51283 1.18041,-4.73884 1.15569,-2.27604 3.80738,-4.03131 1.45092,-0.96042 3.08293,-1.32118 1.64893,-0.44391 3.2626,-0.28885 1.61368,0.15506 3.07585,0.84214 1.42904,0.63705 2.52336,1.85543 z"
         style="font-style:normal;font-variant:normal;font-weight:bold;font-stretch:normal;font-size:60px;font-family:'Helvetica Neue';-inkscape-font-specification:'Helvetica Neue Bold';letter-spacing:3px;fill:#ffffff;fill-opacity:1"
         id="path4353" />
      <path
         d="m 499.90184,526.73886 28.80157,31.71333 24.0737,-21.86337 -5.32466,-5.86297 -17.10032,15.53025 -7.05921,-7.77287 15.36809,-13.95706 -4.92128,-5.41881 -15.36808,13.95706 -6.17177,-6.79571 16.745,-15.20755 -5.32466,-5.86297 -23.71838,21.54067 z"
         style="font-style:normal;font-variant:normal;font-weight:bold;font-stretch:normal;font-size:60px;font-family:'Helvetica Neue';-inkscape-font-specification:'Helvetica Neue Bold';letter-spacing:3px;fill:#ffffff;fill-opacity:1"
         id="path4355" />
    </g>
    <g
       style="font-style:normal;font-weight:normal;font-size:42.5px;line-height:125%;font-family:Sans;letter-spacing:0px;word-spacing:0px;fill:#000000;fill-opacity:1;stroke:none;stroke-width:1px;stroke-linecap:butt;stroke-linejoin:miter;stroke-opacity:1"
       id="text4274">
      <path
         d="m 125.16095,369.66608 0,30.345 6.6725,0 0,-30.345 -6.6725,0 z"
         style="font-style:normal;font-variant:normal;font-weight:bold;font-stretch:normal;font-size:42.5px;font-family:'Helvetica Neue';-inkscape-font-specification:'Helvetica Neue Bold';fill:#ffffff;fill-opacity:1"
         id="path4301" />
      <path
         d="m 137.61212,369.66608 0,30.345 23.035,0 0,-5.61 -16.3625,0 0,-7.4375 14.705,0 0,-5.185 -14.705,0 0,-6.5025 16.0225,0 0,-5.61 -22.695,0 z"
         style="font-style:normal;font-variant:normal;font-weight:bold;font-stretch:normal;font-size:42.5px;font-family:'Helvetica Neue';-inkscape-font-specification:'Helvetica Neue Bold';fill:#ffffff;fill-opacity:1"
         id="path4303" />
      <path
         d="m 165.0877,369.66608 0,30.345 23.035,0 0,-5.61 -16.3625,0 0,-7.4375 14.705,0 0,-5.185 -14.705,0 0,-6.5025 16.0225,0 0,-5.61 -22.695,0 z"
         style="font-style:normal;font-variant:normal;font-weight:bold;font-stretch:normal;font-size:42.5px;font-family:'Helvetica Neue';-inkscape-font-specification:'Helvetica Neue Bold';fill:#ffffff;fill-opacity:1"
         id="path4305" />
      <path
         d="m 192.56329,369.66608 0,30.345 23.035,0 0,-5.61 -16.3625,0 0,-7.4375 14.705,0 0,-5.185 -14.705,0 0,-6.5025 16.0225,0 0,-5.61 -22.695,0 z"
         style="font-style:normal;font-variant:normal;font-weight:bold;font-stretch:normal;font-size:42.5px;font-family:'Helvetica Neue';-inkscape-font-specification:'Helvetica Neue Bold';fill:#ffffff;fill-opacity:1"
         id="path4307" />
    </g>
    <g
       style="font-style:normal;font-weight:normal;font-size:40px;line-height:125%;font-family:Sans;letter-spacing:0px;word-spacing:0px;fill:#001d1d;fill-opacity:1;stroke:none;stroke-width:1px;stroke-linecap:butt;stroke-linejoin:miter;stroke-opacity:1"
       id="text4278">
      <path
         d="m 35.892592,322.96374 -18.24,0 0,4.72 6.24,0 0,23.84 5.76,0 0,-23.84 6.24,0 0,-4.72 z"
         style="font-style:normal;font-variant:normal;font-weight:bold;font-stretch:condensed;font-family:'Helvetica Neue';-inkscape-font-specification:'Helvetica Neue Bold Condensed';fill:#001d1d;fill-opacity:1"
         id="path4274" />
      <path
         d="m 36.633217,322.96374 5.2,28.56 6.44,0 3.2,-20.72 0.08,0 3.2,20.72 6.44,0 5.2,-28.56 -5.52,0 -3.16,21.12 -0.08,0 -3.36,-21.12 -5.52,0 -3.36,21.12 -0.08,0 -3.16,-21.12 -5.52,0 z"
         style="font-style:normal;font-variant:normal;font-weight:bold;font-stretch:condensed;font-family:'Helvetica Neue';-inkscape-font-specification:'Helvetica Neue Bold Condensed';fill:#001d1d;fill-opacity:1"
         id="path4276" />
      <path
         d="m 84.663842,322.96374 -15.96,0 0,28.56 16.36,0 0,-4.72 -10.6,0 0,-7.68 9.6,0 0,-4.72 -9.6,0 0,-6.72 10.2,0 0,-4.72 z"
         style="font-style:normal;font-variant:normal;font-weight:bold;font-stretch:condensed;font-family:'Helvetica Neue';-inkscape-font-specification:'Helvetica Neue Bold Condensed';fill:#001d1d;fill-opacity:1"
         id="path4278" />
      <path
         d="m 94.640717,322.96374 -6.64,0 0,28.56 5.28,0 0,-20 0.08,0 7.040003,20 6.56,0 0,-28.56 -5.28,0 0,19.56 -0.08,0 -6.960003,-19.56 z"
         style="font-style:normal;font-variant:normal;font-weight:bold;font-stretch:condensed;font-family:'Helvetica Neue';-inkscape-font-specification:'Helvetica Neue Bold Condensed';fill:#001d1d;fill-opacity:1"
         id="path4280" />
      <path
         d="m 127.76759,322.96374 -18.24,0 0,4.72 6.24,0 0,23.84 5.76,0 0,-23.84 6.24,0 0,-4.72 z"
         style="font-style:normal;font-variant:normal;font-weight:bold;font-stretch:condensed;font-family:'Helvetica Neue';-inkscape-font-specification:'Helvetica Neue Bold Condensed';fill:#001d1d;fill-opacity:1"
         id="path4282" />
      <path
         d="m 134.78822,322.96374 -6.48,0 7.4,17.32 0,11.24 5.76,0 0,-11.24 7.4,-17.32 -6.24,0 -4,11.04 -0.08,0 -3.76,-11.04 z"
         style="font-style:normal;font-variant:normal;font-weight:bold;font-stretch:condensed;font-family:'Helvetica Neue';-inkscape-font-specification:'Helvetica Neue Bold Condensed';fill:#001d1d;fill-opacity:1"
         id="path4284" />
      <path
         d="m 159.04072,337.60374 -11.28,0 0,4.72 11.28,0 0,-4.72 z"
         style="font-style:normal;font-variant:normal;font-weight:bold;font-stretch:condensed;font-family:'Helvetica Neue';-inkscape-font-specification:'Helvetica Neue Bold Condensed';fill:#001d1d;fill-opacity:1"
         id="path4286" />
      <path
         d="m 167.48447,342.60374 -5.76,0 0,1.16 q 0,3.96 2.08,6.08 2.12,2.12 7,2.12 4.68,0 7.28,-2.04 2.64,-2.08 2.64,-6.6 0,-1.32 -0.24,-2.4 -0.24,-1.08 -0.88,-1.96 -0.6,-0.92 -1.64,-1.68 -1.04,-0.8 -2.68,-1.52 l -4.44,-1.92 q -1.84,-0.76 -2.4,-1.64 -0.56,-0.92 -0.56,-2.24 0,-0.64 0.12,-1.24 0.16,-0.6 0.52,-1.04 0.4,-0.48 1.04,-0.76 0.64,-0.28 1.6,-0.28 1.68,0 2.4,1.12 0.72,1.08 0.72,3.12 l 5.52,0 0,-0.8 q 0,-2.04 -0.68,-3.48 -0.64,-1.48 -1.84,-2.4 -1.16,-0.96 -2.8,-1.36 -1.6,-0.44 -3.52,-0.44 -4.12,0 -6.48,2.08 -2.36,2.08 -2.36,6.32 0,1.76 0.44,3.12 0.44,1.32 1.36,2.36 0.96,1 2.36,1.76 1.4,0.76 3.32,1.4 1.44,0.48 2.4,0.96 1,0.44 1.6,1 0.6,0.56 0.84,1.28 0.28,0.68 0.28,1.64 0,1.8 -1.08,2.68 -1.04,0.84 -2.36,0.84 -1.12,0 -1.88,-0.32 -0.72,-0.32 -1.16,-0.88 -0.44,-0.56 -0.6,-1.36 -0.16,-0.84 -0.16,-1.84 l 0,-0.84 z"
         style="font-style:normal;font-variant:normal;font-weight:bold;font-stretch:condensed;font-family:'Helvetica Neue';-inkscape-font-specification:'Helvetica Neue Bold Condensed';fill:#001d1d;fill-opacity:1"
         id="path4288" />
      <path
         d="m 199.50759,322.96374 -15.96,0 0,28.56 16.36,0 0,-4.72 -10.6,0 0,-7.68 9.6,0 0,-4.72 -9.6,0 0,-6.72 10.2,0 0,-4.72 z"
         style="font-style:normal;font-variant:normal;font-weight:bold;font-stretch:condensed;font-family:'Helvetica Neue';-inkscape-font-specification:'Helvetica Neue Bold Condensed';fill:#001d1d;fill-opacity:1"
         id="path4290" />
      <path
         d="m 215.04447,332.60374 5.76,0 q 0,-1.56 -0.24,-3.32 -0.2,-1.8 -1.08,-3.32 -0.88,-1.56 -2.68,-2.56 -1.76,-1 -4.84,-1 -3.24,0 -5.16,1.12 -1.92,1.08 -2.96,3.04 -1,1.96 -1.32,4.72 -0.28,2.72 -0.28,5.96 0,3.28 0.28,6 0.32,2.72 1.32,4.68 1.04,1.96 2.96,3 1.92,1.04 5.16,1.04 2.84,0 4.6,-0.88 1.8,-0.88 2.76,-2.44 1,-1.56 1.36,-3.64 0.36,-2.08 0.36,-4.4 l -5.76,0 q 0,2.32 -0.28,3.76 -0.28,1.4 -0.76,2.2 -0.48,0.76 -1.16,1.04 -0.64,0.24 -1.4,0.24 -0.92,0 -1.64,-0.36 -0.68,-0.4 -1.16,-1.48 -0.44,-1.12 -0.68,-3.12 -0.2,-2 -0.2,-5.24 0,-3.04 0.16,-5.12 0.16,-2.12 0.56,-3.4 0.4,-1.32 1.08,-1.88 0.72,-0.6 1.8,-0.6 1.96,0 2.68,1.44 0.76,1.4 0.76,4.52 z"
         style="font-style:normal;font-variant:normal;font-weight:bold;font-stretch:condensed;font-family:'Helvetica Neue';-inkscape-font-specification:'Helvetica Neue Bold Condensed';fill:#001d1d;fill-opacity:1"
         id="path4292" />
      <path
         d="m 229.48884,337.24374 q 0,-2.88 0.12,-4.88 0.16,-2 0.56,-3.28 0.44,-1.28 1.2,-1.84 0.8,-0.6 2.08,-0.6 1.28,0 2.04,0.6 0.8,0.56 1.2,1.84 0.44,1.28 0.56,3.28 0.16,2 0.16,4.88 0,2.88 -0.16,4.92 -0.12,2 -0.56,3.28 -0.4,1.24 -1.2,1.84 -0.76,0.56 -2.04,0.56 -1.28,0 -2.08,-0.56 -0.76,-0.6 -1.2,-1.84 -0.4,-1.28 -0.56,-3.28 -0.12,-2.04 -0.12,-4.92 z m -5.76,0 q 0,3.28 0.28,6 0.32,2.72 1.32,4.68 1.04,1.96 2.96,3 1.92,1.04 5.16,1.04 3.24,0 5.16,-1.04 1.92,-1.04 2.92,-3 1.04,-1.96 1.32,-4.68 0.32,-2.72 0.32,-6 0,-3.24 -0.32,-5.96 -0.28,-2.76 -1.32,-4.72 -1,-1.96 -2.92,-3.04 -1.92,-1.12 -5.16,-1.12 -3.24,0 -5.16,1.12 -1.92,1.08 -2.96,3.04 -1,1.96 -1.32,4.72 -0.28,2.72 -0.28,5.96 z"
         style="font-style:normal;font-variant:normal;font-weight:bold;font-stretch:condensed;font-family:'Helvetica Neue';-inkscape-font-specification:'Helvetica Neue Bold Condensed';fill:#001d1d;fill-opacity:1"
         id="path4294" />
      <path
         d="m 253.23447,322.96374 -6.64,0 0,28.56 5.28,0 0,-20 0.08,0 7.04,20 6.56,0 0,-28.56 -5.28,0 0,19.56 -0.08,0 -6.96,-19.56 z"
         style="font-style:normal;font-variant:normal;font-weight:bold;font-stretch:condensed;font-family:'Helvetica Neue';-inkscape-font-specification:'Helvetica Neue Bold Condensed';fill:#001d1d;fill-opacity:1"
         id="path4296" />
      <path
         d="m 275.68134,347.28374 0,-20.08 2.44,0 q 1.64,0 2.6,0.64 1,0.6 1.48,1.84 0.52,1.2 0.68,3.04 0.16,1.84 0.16,4.28 0,2.92 -0.2,4.88 -0.16,1.96 -0.72,3.16 -0.52,1.2 -1.44,1.72 -0.92,0.52 -2.44,0.52 l -2.56,0 z m -5.76,-24.32 0,28.56 9.08,0 q 2.88,0 4.76,-0.88 1.88,-0.88 3,-2.68 1.12,-1.8 1.56,-4.56 0.48,-2.8 0.48,-6.56 0,-3.16 -0.36,-5.72 -0.36,-2.56 -1.4,-4.36 -1,-1.84 -2.84,-2.8 -1.84,-1 -4.84,-1 l -9.44,0 z"
         style="font-style:normal;font-variant:normal;font-weight:bold;font-stretch:condensed;font-family:'Helvetica Neue';-inkscape-font-specification:'Helvetica Neue Bold Condensed';fill:#001d1d;fill-opacity:1"
         id="path4298" />
    </g>
    <g
       style="font-style:normal;font-weight:normal;font-size:40px;line-height:125%;font-family:Sans;letter-spacing:0px;word-spacing:0px;fill:#000000;fill-opacity:1;stroke:none;stroke-width:1px;stroke-linecap:butt;stroke-linejoin:miter;stroke-opacity:1"
       id="text4282">
      <path
         d="m 457.5738,402.03137 5.04,0 0,-24.99 -5.04,0 0,24.99 z"
         style="font-style:normal;font-variant:normal;font-weight:bold;font-stretch:condensed;font-size:35px;font-family:'Helvetica Neue';-inkscape-font-specification:'Helvetica Neue Bold Condensed';letter-spacing:1.5px;fill:#ffffff;fill-opacity:1"
         id="path4310" />
      <path
         d="m 473.66223,377.04137 -5.81,0 0,24.99 4.62,0 0,-17.5 0.07,0 6.16,17.5 5.74,0 0,-24.99 -4.62,0 0,17.115 -0.07,0 -6.09,-17.115 z"
         style="font-style:normal;font-variant:normal;font-weight:bold;font-stretch:condensed;font-size:35px;font-family:'Helvetica Neue';-inkscape-font-specification:'Helvetica Neue Bold Condensed';letter-spacing:1.5px;fill:#ffffff;fill-opacity:1"
         id="path4312" />
      <path
         d="m 504.14825,377.04137 -15.96,0 0,4.13 5.46,0 0,20.86 5.04,0 0,-20.86 5.46,0 0,-4.13 z"
         style="font-style:normal;font-variant:normal;font-weight:bold;font-stretch:condensed;font-size:35px;font-family:'Helvetica Neue';-inkscape-font-specification:'Helvetica Neue Bold Condensed';letter-spacing:1.5px;fill:#ffffff;fill-opacity:1"
         id="path4314" />
      <path
         d="m 521.7313,377.04137 -13.965,0 0,24.99 14.315,0 0,-4.13 -9.275,0 0,-6.72 8.4,0 0,-4.13 -8.4,0 0,-5.88 8.925,0 0,-4.13 z"
         style="font-style:normal;font-variant:normal;font-weight:bold;font-stretch:condensed;font-size:35px;font-family:'Helvetica Neue';-inkscape-font-specification:'Helvetica Neue Bold Condensed';letter-spacing:1.5px;fill:#ffffff;fill-opacity:1"
         id="path4316" />
      <path
         d="m 526.15106,377.04137 0,24.99 5.04,0 0,-10.57 2.695,0 q 1.575,0 2.24,0.84 0.665,0.84 0.735,2.31 l 0.14,4.795 q 0.035,0.735 0.14,1.435 0.105,0.665 0.49,1.19 l 5.46,0 0,-0.21 q -0.7,-0.385 -0.91,-1.435 -0.14,-1.05 -0.21,-3.045 -0.035,-1.015 -0.07,-1.82 -0.035,-0.84 -0.105,-1.54 -0.21,-2.1 -1.085,-3.045 -0.875,-0.945 -2.765,-1.225 l 0,-0.07 q 2.135,-0.455 3.15,-2.03 1.015,-1.61 1.015,-4.13 0,-3.255 -1.75,-4.83 -1.75,-1.61 -4.9,-1.61 l -9.31,0 z m 5.04,10.92 0,-7.21 2.38,0 q 3.5,0 3.5,3.465 0,2.03 -0.98,2.905 -0.98,0.84 -2.8,0.84 l -2.1,0 z"
         style="font-style:normal;font-variant:normal;font-weight:bold;font-stretch:condensed;font-size:35px;font-family:'Helvetica Neue';-inkscape-font-specification:'Helvetica Neue Bold Condensed';letter-spacing:1.5px;fill:#ffffff;fill-opacity:1"
         id="path4318" />
      <path
         d="m 553.01184,377.04137 -5.81,0 0,24.99 4.62,0 0,-17.5 0.07,0 6.16,17.5 5.74,0 0,-24.99 -4.62,0 0,17.115 -0.07,0 -6.09,-17.115 z"
         style="font-style:normal;font-variant:normal;font-weight:bold;font-stretch:condensed;font-size:35px;font-family:'Helvetica Neue';-inkscape-font-specification:'Helvetica Neue Bold Condensed';letter-spacing:1.5px;fill:#ffffff;fill-opacity:1"
         id="path4320" />
      <path
         d="m 579.29786,392.61637 -2.415,-11.235 -0.07,0 -2.415,11.235 4.9,0 z m 0.665,-15.575 6.615,24.99 -5.25,0 -1.155,-5.285 -6.65,0 -1.155,5.285 -5.25,0 6.615,-24.99 6.23,0 z"
         style="font-style:normal;font-variant:normal;font-weight:bold;font-stretch:condensed;font-size:35px;font-family:'Helvetica Neue';-inkscape-font-specification:'Helvetica Neue Bold Condensed';letter-spacing:1.5px;fill:#ffffff;fill-opacity:1"
         id="path4322" />
      <path
         d="m 602.56622,377.04137 -15.96,0 0,4.13 5.46,0 0,20.86 5.04,0 0,-20.86 5.46,0 0,-4.13 z"
         style="font-style:normal;font-variant:normal;font-weight:bold;font-stretch:condensed;font-size:35px;font-family:'Helvetica Neue';-inkscape-font-specification:'Helvetica Neue Bold Condensed';letter-spacing:1.5px;fill:#ffffff;fill-opacity:1"
         id="path4324" />
      <path
         d="m 606.42927,402.03137 5.04,0 0,-24.99 -5.04,0 0,24.99 z"
         style="font-style:normal;font-variant:normal;font-weight:bold;font-stretch:condensed;font-size:35px;font-family:'Helvetica Neue';-inkscape-font-specification:'Helvetica Neue Bold Condensed';letter-spacing:1.5px;fill:#ffffff;fill-opacity:1"
         id="path4326" />
      <path
         d="m 621.2227,389.53637 q 0,-2.52 0.105,-4.27 0.14,-1.75 0.49,-2.87 0.385,-1.12 1.05,-1.61 0.7,-0.525 1.82,-0.525 1.12,0 1.785,0.525 0.7,0.49 1.05,1.61 0.385,1.12 0.49,2.87 0.14,1.75 0.14,4.27 0,2.52 -0.14,4.305 -0.105,1.75 -0.49,2.87 -0.35,1.085 -1.05,1.61 -0.665,0.49 -1.785,0.49 -1.12,0 -1.82,-0.49 -0.665,-0.525 -1.05,-1.61 -0.35,-1.12 -0.49,-2.87 -0.105,-1.785 -0.105,-4.305 z m -5.04,0 q 0,2.87 0.245,5.25 0.28,2.38 1.155,4.095 0.91,1.715 2.59,2.625 1.68,0.91 4.515,0.91 2.835,0 4.515,-0.91 1.68,-0.91 2.555,-2.625 0.91,-1.715 1.155,-4.095 0.28,-2.38 0.28,-5.25 0,-2.835 -0.28,-5.215 -0.245,-2.415 -1.155,-4.13 -0.875,-1.715 -2.555,-2.66 -1.68,-0.98 -4.515,-0.98 -2.835,0 -4.515,0.98 -1.68,0.945 -2.59,2.66 -0.875,1.715 -1.155,4.13 -0.245,2.38 -0.245,5.215 z"
         style="font-style:normal;font-variant:normal;font-weight:bold;font-stretch:condensed;font-size:35px;font-family:'Helvetica Neue';-inkscape-font-specification:'Helvetica Neue Bold Condensed';letter-spacing:1.5px;fill:#ffffff;fill-opacity:1"
         id="path4328" />
      <path
         d="m 643.50012,377.04137 -5.81,0 0,24.99 4.62,0 0,-17.5 0.07,0 6.16,17.5 5.74,0 0,-24.99 -4.62,0 0,17.115 -0.07,0 -6.09,-17.115 z"
         style="font-style:normal;font-variant:normal;font-weight:bold;font-stretch:condensed;font-size:35px;font-family:'Helvetica Neue';-inkscape-font-specification:'Helvetica Neue Bold Condensed';letter-spacing:1.5px;fill:#ffffff;fill-opacity:1"
         id="path4330" />
      <path
         d="m 669.78614,392.61637 -2.415,-11.235 -0.07,0 -2.415,11.235 4.9,0 z m 0.665,-15.575 6.615,24.99 -5.25,0 -1.155,-5.285 -6.65,0 -1.155,5.285 -5.25,0 6.615,-24.99 6.23,0 z"
         style="font-style:normal;font-variant:normal;font-weight:bold;font-stretch:condensed;font-size:35px;font-family:'Helvetica Neue';-inkscape-font-specification:'Helvetica Neue Bold Condensed';letter-spacing:1.5px;fill:#ffffff;fill-opacity:1"
         id="path4332" />
      <path
         d="m 680.33856,402.03137 13.965,0 0,-4.13 -8.925,0 0,-20.86 -5.04,0 0,24.99 z"
         style="font-style:normal;font-variant:normal;font-weight:bold;font-stretch:condensed;font-size:35px;font-family:'Helvetica Neue';-inkscape-font-specification:'Helvetica Neue Bold Condensed';letter-spacing:1.5px;fill:#ffffff;fill-opacity:1"
         id="path4334" />
    </g>
  </g>
</svg>
